<svg xmlns="http://www.w3.org/2000/svg" width="1468" height="343" viewBox="0 0 1468 343">
<style>
  text { font-family: -apple-system, 'Helvetica Neue', Arial, sans-serif; fill: #818b98; }
  .title { font-size: 18.4px; font-weight: 600; }
  .value { font-size: 15.3px; }
  .name  { font-size: 14.1px; }
  .sub   { font-size: 11.6px; }
  .note  { font-size: 23.2px; opacity: 0.9; }
</style>
<pattern id="hatch" width="7" height="7" patternTransform="rotate(45)" patternUnits="userSpaceOnUse"><line x1="0" y1="0" x2="0" y2="7" stroke="#818b98" stroke-opacity="0.45" stroke-width="2.5"/></pattern>
<text x="179" y="26.9" text-anchor="middle" class="title">generic instantiation · n=3200</text>
<line x1="16" y1="240.52666666666667" x2="342" y2="240.52666666666667" stroke="#818b98" stroke-opacity="0.3"/>
<path d="M 16 240.5 L 16 95.5 Q 16 90.5 21 90.5 L 65 90.5 Q 70 90.5 70 95.5 L 70 240.5 Z" fill="url(#hatch)" stroke="#818b98" stroke-opacity="0.5" stroke-dasharray="4 3"/>
<text x="43" y="81.9" text-anchor="middle" class="value">&gt;10min</text>
<text x="43" y="111.3" text-anchor="middle" class="name">timeout</text>
<text x="43" y="265.0" text-anchor="middle" class="name">Isabelle</text>
<path d="M 84 240.5 L 84 95.5 Q 84 90.5 89 90.5 L 133 90.5 Q 138 90.5 138 95.5 L 138 240.5 Z" fill="url(#hatch)" stroke="#818b98" stroke-opacity="0.5" stroke-dasharray="4 3"/>
<text x="111" y="81.9" text-anchor="middle" class="value">&gt;10min</text>
<text x="111" y="111.3" text-anchor="middle" class="name">timeout</text>
<text x="111" y="265.0" text-anchor="middle" class="name">Agda</text>
<path d="M 152 240.5 L 152 170.5 Q 152 165.5 157 165.5 L 201 165.5 Q 206 165.5 206 170.5 L 206 240.5 Z" fill="#818b98" fill-opacity="0.4"/>
<text x="179" y="156.9" text-anchor="middle" class="value">22.8s</text>
<text x="179" y="265.0" text-anchor="middle" class="name">Lean</text>
<path d="M 220 240.5 L 220 224.9 Q 220 219.9 225 219.9 L 269 219.9 Q 274 219.9 274 224.9 L 274 240.5 Z" fill="#818b98" fill-opacity="0.4"/>
<text x="247" y="211.3" text-anchor="middle" class="value">6.27s</text>
<text x="247" y="265.0" text-anchor="middle" class="name">Rocq</text>
<path d="M 288 240.5 L 288 239.9 Q 288 239.3 288.6 239.3 L 341.4 239.3 Q 342 239.3 342 239.9 L 342 240.5 Z" fill="#1a4f8a"/>
<text x="315" y="230.7" text-anchor="middle" class="value" style="fill: #1a4f8a">0.35s</text>
<text x="315" y="265.0" text-anchor="middle" class="name" style="fill: #1a4f8a">Bend</text>
<text x="549" y="26.9" text-anchor="middle" class="title">proof libraries · n=3200</text>
<line x1="386" y1="240.52666666666667" x2="712" y2="240.52666666666667" stroke="#818b98" stroke-opacity="0.3"/>
<path d="M 386 240.5 L 386 95.5 Q 386 90.5 391 90.5 L 435 90.5 Q 440 90.5 440 95.5 L 440 240.5 Z" fill="url(#hatch)" stroke="#818b98" stroke-opacity="0.5" stroke-dasharray="4 3"/>
<text x="413" y="81.9" text-anchor="middle" class="value">&gt;10min</text>
<text x="413" y="111.3" text-anchor="middle" class="name">timeout</text>
<text x="413" y="265.0" text-anchor="middle" class="name">Isabelle</text>
<path d="M 454 240.5 L 454 95.5 Q 454 90.5 459 90.5 L 503 90.5 Q 508 90.5 508 95.5 L 508 240.5 Z" fill="url(#hatch)" stroke="#818b98" stroke-opacity="0.5" stroke-dasharray="4 3"/>
<text x="481" y="81.9" text-anchor="middle" class="value">&gt;10min</text>
<text x="481" y="111.3" text-anchor="middle" class="name">timeout</text>
<text x="481" y="265.0" text-anchor="middle" class="name">Agda</text>
<path d="M 522 240.5 L 522 95.5 Q 522 90.5 527 90.5 L 571 90.5 Q 576 90.5 576 95.5 L 576 240.5 Z" fill="url(#hatch)" stroke="#818b98" stroke-opacity="0.5" stroke-dasharray="4 3"/>
<text x="549" y="81.9" text-anchor="middle" class="value">&gt;10min</text>
<text x="549" y="111.3" text-anchor="middle" class="name">timeout</text>
<text x="549" y="265.0" text-anchor="middle" class="name">Lean</text>
<path d="M 590 240.5 L 590 170.5 Q 590 165.5 595 165.5 L 639 165.5 Q 644 165.5 644 170.5 L 644 240.5 Z" fill="#818b98" fill-opacity="0.4"/>
<text x="617" y="156.9" text-anchor="middle" class="value">9.52s</text>
<text x="617" y="265.0" text-anchor="middle" class="name">Rocq</text>
<path d="M 658 240.5 L 658 237.15 Q 658 233.8 661.35 233.8 L 708.65 233.8 Q 712 233.8 712 237.15 L 712 240.5 Z" fill="#1a4f8a"/>
<text x="685" y="225.2" text-anchor="middle" class="value" style="fill: #1a4f8a">0.85s</text>
<text x="685" y="265.0" text-anchor="middle" class="name" style="fill: #1a4f8a">Bend</text>
<text x="919" y="26.9" text-anchor="middle" class="title">plain programs · n=12800</text>
<line x1="756" y1="240.52666666666667" x2="1082" y2="240.52666666666667" stroke="#818b98" stroke-opacity="0.3"/>
<path d="M 756 240.5 L 756 128.5 Q 756 123.5 761 123.5 L 805 123.5 Q 810 123.5 810 128.5 L 810 240.5 Z" fill="url(#hatch)" stroke="#818b98" stroke-opacity="0.5" stroke-dasharray="4 3"/>
<text x="783" y="114.9" text-anchor="middle" class="value">&gt;10min</text>
<text x="783" y="144.3" text-anchor="middle" class="name">timeout</text>
<text x="783" y="265.0" text-anchor="middle" class="name">Isabelle</text>
<path d="M 824 240.5 L 824 170.5 Q 824 165.5 829 165.5 L 873 165.5 Q 878 165.5 878 170.5 L 878 240.5 Z" fill="#818b98" fill-opacity="0.4"/>
<text x="851" y="156.9" text-anchor="middle" class="value">384s</text>
<text x="851" y="265.0" text-anchor="middle" class="name">Agda</text>
<path d="M 892 240.5 L 892 237.04999999999998 Q 892 233.6 895.45 233.6 L 942.55 233.6 Q 946 233.6 946 237.04999999999998 L 946 240.5 Z" fill="#818b98" fill-opacity="0.4"/>
<text x="919" y="225.0" text-anchor="middle" class="value">35.3s</text>
<text x="919" y="265.0" text-anchor="middle" class="name">Lean</text>
<path d="M 960 240.5 L 960 240 Q 960 239.5 960.5 239.5 L 1013.5 239.5 Q 1014 239.5 1014 240 L 1014 240.5 Z" fill="#818b98" fill-opacity="0.4"/>
<text x="987" y="230.9" text-anchor="middle" class="value">3.04s</text>
<text x="987" y="265.0" text-anchor="middle" class="name">Rocq</text>
<path d="M 1028 240.5 L 1028 240 Q 1028 239.5 1028.5 239.5 L 1081.5 239.5 Q 1082 239.5 1082 240 L 1082 240.5 Z" fill="#1a4f8a"/>
<text x="1055" y="230.9" text-anchor="middle" class="value" style="fill: #1a4f8a">0.30s</text>
<text x="1055" y="265.0" text-anchor="middle" class="name" style="fill: #1a4f8a">Bend</text>
<text x="1289" y="26.9" text-anchor="middle" class="title">evaluation (smalltt trees) · n=400</text>
<line x1="1126" y1="240.52666666666667" x2="1452" y2="240.52666666666667" stroke="#818b98" stroke-opacity="0.3"/>
<path d="M 1126 240.5 L 1126 95.5 Q 1126 90.5 1131 90.5 L 1175 90.5 Q 1180 90.5 1180 95.5 L 1180 240.5 Z" fill="#818b98" fill-opacity="0.4"/>
<text x="1153" y="81.9" text-anchor="middle" class="value">8.34s</text>
<text x="1153" y="265.0" text-anchor="middle" class="name">Isabelle</text>
<path d="M 1194 240.5 L 1194 185.7 Q 1194 180.7 1199 180.7 L 1243 180.7 Q 1248 180.7 1248 185.7 L 1248 240.5 Z" fill="#818b98" fill-opacity="0.4"/>
<text x="1221" y="172.1" text-anchor="middle" class="value">3.32s</text>
<text x="1221" y="265.0" text-anchor="middle" class="name">Agda</text>
<path d="M 1262 240.5 L 1262 220.3 Q 1262 215.3 1267 215.3 L 1311 215.3 Q 1316 215.3 1316 220.3 L 1316 240.5 Z" fill="#818b98" fill-opacity="0.4"/>
<text x="1289" y="206.7" text-anchor="middle" class="value">1.40s</text>
<text x="1289" y="265.0" text-anchor="middle" class="name">Lean</text>
<path d="M 1330 240.5 L 1330 219.8 Q 1330 214.8 1335 214.8 L 1379 214.8 Q 1384 214.8 1384 219.8 L 1384 240.5 Z" fill="#818b98" fill-opacity="0.4"/>
<text x="1357" y="206.2" text-anchor="middle" class="value">1.43s</text>
<text x="1357" y="265.0" text-anchor="middle" class="name">Rocq</text>
<path d="M 1398 240.5 L 1398 236.4 Q 1398 232.3 1402.1 232.3 L 1447.9 232.3 Q 1452 232.3 1452 236.4 L 1452 240.5 Z" fill="#1a4f8a"/>
<text x="1425" y="223.7" text-anchor="middle" class="value" style="fill: #1a4f8a">0.46s</text>
<text x="1425" y="265.0" text-anchor="middle" class="name" style="fill: #1a4f8a">Bend</text>
<text x="734" y="323.4" text-anchor="middle" class="note">cold check of one file, lower is better · <tspan font-weight="bold">Apple M4 Max</tspan></text>
</svg>
